<mxfile host="app.diagrams.net" agent="Mozilla/5.0 (Windows NT 10.0; Win64; x64; rv:131.0) Gecko/20100101 Firefox/131.0" version="24.7.17">
  <diagram name="Page-1" id="1YHAGJRttuihYD4nkrkI">
    <mxGraphModel dx="1222" dy="645" grid="1" gridSize="10" guides="1" tooltips="1" connect="1" arrows="1" fold="1" page="1" pageScale="1" pageWidth="850" pageHeight="1100" math="0" shadow="0">
      <root>
        <mxCell id="0" />
        <mxCell id="1" parent="0" />
        <mxCell id="0j59Tg4bFkBEUP-R-mHI-64" value="" style="rounded=0;whiteSpace=wrap;html=1;" vertex="1" parent="1">
          <mxGeometry x="405" y="1157" width="10" height="30" as="geometry" />
        </mxCell>
        <mxCell id="0j59Tg4bFkBEUP-R-mHI-1" value="" style="ellipse;whiteSpace=wrap;html=1;dashed=1;dashPattern=12 12;" vertex="1" parent="1">
          <mxGeometry x="60" y="40" width="700" height="420" as="geometry" />
        </mxCell>
        <mxCell id="0j59Tg4bFkBEUP-R-mHI-2" value="" style="endArrow=none;html=1;rounded=0;exitX=0;exitY=0;exitDx=0;exitDy=0;entryX=1;entryY=0;entryDx=0;entryDy=0;" edge="1" parent="1" source="0j59Tg4bFkBEUP-R-mHI-1" target="0j59Tg4bFkBEUP-R-mHI-1">
          <mxGeometry width="50" height="50" relative="1" as="geometry">
            <mxPoint x="390" y="300" as="sourcePoint" />
            <mxPoint x="440" y="250" as="targetPoint" />
          </mxGeometry>
        </mxCell>
        <mxCell id="0j59Tg4bFkBEUP-R-mHI-3" value="Sales" style="text;html=1;align=center;verticalAlign=middle;whiteSpace=wrap;rounded=0;" vertex="1" parent="1">
          <mxGeometry x="380" y="60" width="60" height="30" as="geometry" />
        </mxCell>
        <mxCell id="0j59Tg4bFkBEUP-R-mHI-4" value="Salesman" style="rounded=0;whiteSpace=wrap;html=1;" vertex="1" parent="1">
          <mxGeometry x="170" y="130" width="120" height="60" as="geometry" />
        </mxCell>
        <mxCell id="0j59Tg4bFkBEUP-R-mHI-6" value="Customer" style="rounded=0;whiteSpace=wrap;html=1;" vertex="1" parent="1">
          <mxGeometry x="520" y="130" width="120" height="60" as="geometry" />
        </mxCell>
        <mxCell id="0j59Tg4bFkBEUP-R-mHI-9" value="Sale" style="ellipse;whiteSpace=wrap;html=1;dashed=1;dashPattern=12 12;" vertex="1" parent="1">
          <mxGeometry x="370" y="130" width="80" height="60" as="geometry" />
        </mxCell>
        <mxCell id="0j59Tg4bFkBEUP-R-mHI-10" value="" style="endArrow=none;html=1;rounded=0;entryX=1;entryY=0.5;entryDx=0;entryDy=0;exitX=0;exitY=0.5;exitDx=0;exitDy=0;" edge="1" parent="1" source="0j59Tg4bFkBEUP-R-mHI-6" target="0j59Tg4bFkBEUP-R-mHI-9">
          <mxGeometry width="50" height="50" relative="1" as="geometry">
            <mxPoint x="400" y="270" as="sourcePoint" />
            <mxPoint x="450" y="220" as="targetPoint" />
          </mxGeometry>
        </mxCell>
        <mxCell id="0j59Tg4bFkBEUP-R-mHI-13" value="Salesman" style="edgeLabel;html=1;align=center;verticalAlign=middle;resizable=0;points=[];" vertex="1" connectable="0" parent="0j59Tg4bFkBEUP-R-mHI-10">
          <mxGeometry x="0.1714" y="1" relative="1" as="geometry">
            <mxPoint as="offset" />
          </mxGeometry>
        </mxCell>
        <mxCell id="0j59Tg4bFkBEUP-R-mHI-11" value="" style="endArrow=none;html=1;rounded=0;entryX=1;entryY=0.5;entryDx=0;entryDy=0;exitX=0;exitY=0.5;exitDx=0;exitDy=0;" edge="1" parent="1" source="0j59Tg4bFkBEUP-R-mHI-9" target="0j59Tg4bFkBEUP-R-mHI-4">
          <mxGeometry width="50" height="50" relative="1" as="geometry">
            <mxPoint x="530" y="170" as="sourcePoint" />
            <mxPoint x="460" y="170" as="targetPoint" />
          </mxGeometry>
        </mxCell>
        <mxCell id="0j59Tg4bFkBEUP-R-mHI-12" value="Customer" style="edgeLabel;html=1;align=center;verticalAlign=middle;resizable=0;points=[];" vertex="1" connectable="0" parent="0j59Tg4bFkBEUP-R-mHI-11">
          <mxGeometry x="-0.025" relative="1" as="geometry">
            <mxPoint as="offset" />
          </mxGeometry>
        </mxCell>
        <mxCell id="0j59Tg4bFkBEUP-R-mHI-14" value="" style="ellipse;whiteSpace=wrap;html=1;dashed=1;dashPattern=12 12;" vertex="1" parent="1">
          <mxGeometry x="60" y="500" width="700" height="420" as="geometry" />
        </mxCell>
        <mxCell id="0j59Tg4bFkBEUP-R-mHI-15" value="" style="endArrow=none;html=1;rounded=0;exitX=0;exitY=0;exitDx=0;exitDy=0;entryX=1;entryY=0;entryDx=0;entryDy=0;" edge="1" parent="1" source="0j59Tg4bFkBEUP-R-mHI-14" target="0j59Tg4bFkBEUP-R-mHI-14">
          <mxGeometry width="50" height="50" relative="1" as="geometry">
            <mxPoint x="390" y="760" as="sourcePoint" />
            <mxPoint x="440" y="710" as="targetPoint" />
          </mxGeometry>
        </mxCell>
        <mxCell id="0j59Tg4bFkBEUP-R-mHI-16" value="Broker Sale" style="text;html=1;align=center;verticalAlign=middle;whiteSpace=wrap;rounded=0;" vertex="1" parent="1">
          <mxGeometry x="380" y="520" width="60" height="30" as="geometry" />
        </mxCell>
        <mxCell id="0j59Tg4bFkBEUP-R-mHI-17" value="Salesman" style="rounded=0;whiteSpace=wrap;html=1;" vertex="1" parent="1">
          <mxGeometry x="170" y="590" width="120" height="60" as="geometry" />
        </mxCell>
        <mxCell id="0j59Tg4bFkBEUP-R-mHI-18" value="Customer" style="rounded=0;whiteSpace=wrap;html=1;" vertex="1" parent="1">
          <mxGeometry x="520" y="590" width="120" height="60" as="geometry" />
        </mxCell>
        <mxCell id="0j59Tg4bFkBEUP-R-mHI-19" value="Sale" style="ellipse;whiteSpace=wrap;html=1;dashed=1;dashPattern=12 12;" vertex="1" parent="1">
          <mxGeometry x="290" y="720" width="80" height="60" as="geometry" />
        </mxCell>
        <mxCell id="0j59Tg4bFkBEUP-R-mHI-24" value="Sale" style="ellipse;whiteSpace=wrap;html=1;dashed=1;dashPattern=12 12;" vertex="1" parent="1">
          <mxGeometry x="446" y="720" width="80" height="60" as="geometry" />
        </mxCell>
        <mxCell id="0j59Tg4bFkBEUP-R-mHI-25" value="Broker" style="rounded=0;whiteSpace=wrap;html=1;" vertex="1" parent="1">
          <mxGeometry x="350" y="590" width="120" height="60" as="geometry" />
        </mxCell>
        <mxCell id="0j59Tg4bFkBEUP-R-mHI-26" value="[1..*]" style="text;html=1;align=center;verticalAlign=middle;whiteSpace=wrap;rounded=0;" vertex="1" parent="1">
          <mxGeometry x="337" y="566" width="60" height="30" as="geometry" />
        </mxCell>
        <mxCell id="0j59Tg4bFkBEUP-R-mHI-28" value="" style="endArrow=none;html=1;rounded=0;entryX=0.5;entryY=1;entryDx=0;entryDy=0;exitX=0;exitY=0;exitDx=0;exitDy=0;" edge="1" parent="1" source="0j59Tg4bFkBEUP-R-mHI-19" target="0j59Tg4bFkBEUP-R-mHI-17">
          <mxGeometry width="50" height="50" relative="1" as="geometry">
            <mxPoint x="420" y="730" as="sourcePoint" />
            <mxPoint x="470" y="680" as="targetPoint" />
          </mxGeometry>
        </mxCell>
        <mxCell id="0j59Tg4bFkBEUP-R-mHI-34" value="salesman" style="edgeLabel;html=1;align=center;verticalAlign=middle;resizable=0;points=[];" vertex="1" connectable="0" parent="0j59Tg4bFkBEUP-R-mHI-28">
          <mxGeometry x="-0.0362" y="-1" relative="1" as="geometry">
            <mxPoint x="-1" as="offset" />
          </mxGeometry>
        </mxCell>
        <mxCell id="0j59Tg4bFkBEUP-R-mHI-29" value="" style="endArrow=none;html=1;rounded=0;entryX=0.25;entryY=1;entryDx=0;entryDy=0;exitX=1;exitY=0;exitDx=0;exitDy=0;" edge="1" parent="1" source="0j59Tg4bFkBEUP-R-mHI-19" target="0j59Tg4bFkBEUP-R-mHI-25">
          <mxGeometry width="50" height="50" relative="1" as="geometry">
            <mxPoint x="311" y="739" as="sourcePoint" />
            <mxPoint x="240" y="660" as="targetPoint" />
          </mxGeometry>
        </mxCell>
        <mxCell id="0j59Tg4bFkBEUP-R-mHI-37" value="customer" style="edgeLabel;html=1;align=center;verticalAlign=middle;resizable=0;points=[];" vertex="1" connectable="0" parent="0j59Tg4bFkBEUP-R-mHI-29">
          <mxGeometry x="0.0416" y="1" relative="1" as="geometry">
            <mxPoint as="offset" />
          </mxGeometry>
        </mxCell>
        <mxCell id="0j59Tg4bFkBEUP-R-mHI-30" value="" style="endArrow=none;html=1;rounded=0;entryX=0.75;entryY=1;entryDx=0;entryDy=0;exitX=0;exitY=0;exitDx=0;exitDy=0;" edge="1" parent="1" source="0j59Tg4bFkBEUP-R-mHI-24" target="0j59Tg4bFkBEUP-R-mHI-25">
          <mxGeometry width="50" height="50" relative="1" as="geometry">
            <mxPoint x="369" y="739" as="sourcePoint" />
            <mxPoint x="390" y="660" as="targetPoint" />
          </mxGeometry>
        </mxCell>
        <mxCell id="0j59Tg4bFkBEUP-R-mHI-36" value="customer" style="edgeLabel;html=1;align=center;verticalAlign=middle;resizable=0;points=[];" vertex="1" connectable="0" parent="0j59Tg4bFkBEUP-R-mHI-30">
          <mxGeometry x="0.1215" y="1" relative="1" as="geometry">
            <mxPoint as="offset" />
          </mxGeometry>
        </mxCell>
        <mxCell id="0j59Tg4bFkBEUP-R-mHI-31" value="" style="endArrow=none;html=1;rounded=0;entryX=1;entryY=0;entryDx=0;entryDy=0;exitX=0.5;exitY=1;exitDx=0;exitDy=0;" edge="1" parent="1" source="0j59Tg4bFkBEUP-R-mHI-18" target="0j59Tg4bFkBEUP-R-mHI-24">
          <mxGeometry width="50" height="50" relative="1" as="geometry">
            <mxPoint x="461" y="739" as="sourcePoint" />
            <mxPoint x="450" y="660" as="targetPoint" />
          </mxGeometry>
        </mxCell>
        <mxCell id="0j59Tg4bFkBEUP-R-mHI-35" value="salesman" style="edgeLabel;html=1;align=center;verticalAlign=middle;resizable=0;points=[];" vertex="1" connectable="0" parent="0j59Tg4bFkBEUP-R-mHI-31">
          <mxGeometry x="-0.0454" y="2" relative="1" as="geometry">
            <mxPoint as="offset" />
          </mxGeometry>
        </mxCell>
        <mxCell id="0j59Tg4bFkBEUP-R-mHI-38" value="Salesman" style="rounded=0;whiteSpace=wrap;html=1;" vertex="1" parent="1">
          <mxGeometry x="170" y="971" width="120" height="60" as="geometry" />
        </mxCell>
        <mxCell id="0j59Tg4bFkBEUP-R-mHI-39" value="Customer" style="rounded=0;whiteSpace=wrap;html=1;" vertex="1" parent="1">
          <mxGeometry x="520" y="971" width="120" height="60" as="geometry" />
        </mxCell>
        <mxCell id="0j59Tg4bFkBEUP-R-mHI-40" value="Broker" style="rounded=0;whiteSpace=wrap;html=1;" vertex="1" parent="1">
          <mxGeometry x="350" y="971" width="120" height="60" as="geometry" />
        </mxCell>
        <mxCell id="0j59Tg4bFkBEUP-R-mHI-41" value="[1..*]" style="text;html=1;align=center;verticalAlign=middle;whiteSpace=wrap;rounded=0;" vertex="1" parent="1">
          <mxGeometry x="250" y="941" width="60" height="30" as="geometry" />
        </mxCell>
        <mxCell id="0j59Tg4bFkBEUP-R-mHI-42" value="[1..*]" style="text;html=1;align=center;verticalAlign=middle;whiteSpace=wrap;rounded=0;" vertex="1" parent="1">
          <mxGeometry x="434" y="941" width="60" height="30" as="geometry" />
        </mxCell>
        <mxCell id="0j59Tg4bFkBEUP-R-mHI-43" value="[1..*]" style="text;html=1;align=center;verticalAlign=middle;whiteSpace=wrap;rounded=0;" vertex="1" parent="1">
          <mxGeometry x="600" y="941" width="60" height="30" as="geometry" />
        </mxCell>
        <mxCell id="0j59Tg4bFkBEUP-R-mHI-45" value="" style="endArrow=none;html=1;rounded=0;entryX=0.5;entryY=1;entryDx=0;entryDy=0;" edge="1" parent="1" source="0j59Tg4bFkBEUP-R-mHI-48" target="0j59Tg4bFkBEUP-R-mHI-38">
          <mxGeometry width="50" height="50" relative="1" as="geometry">
            <mxPoint x="230" y="1319" as="sourcePoint" />
            <mxPoint x="230" y="1170" as="targetPoint" />
          </mxGeometry>
        </mxCell>
        <mxCell id="0j59Tg4bFkBEUP-R-mHI-46" value="" style="endArrow=none;html=1;rounded=0;entryX=0.5;entryY=1;entryDx=0;entryDy=0;" edge="1" parent="1" source="0j59Tg4bFkBEUP-R-mHI-52" target="0j59Tg4bFkBEUP-R-mHI-40">
          <mxGeometry width="50" height="50" relative="1" as="geometry">
            <mxPoint x="410" y="1320" as="sourcePoint" />
            <mxPoint x="240" y="1041" as="targetPoint" />
          </mxGeometry>
        </mxCell>
        <mxCell id="0j59Tg4bFkBEUP-R-mHI-47" value="" style="endArrow=none;html=1;rounded=0;entryX=0.5;entryY=1;entryDx=0;entryDy=0;" edge="1" parent="1" source="0j59Tg4bFkBEUP-R-mHI-53" target="0j59Tg4bFkBEUP-R-mHI-39">
          <mxGeometry width="50" height="50" relative="1" as="geometry">
            <mxPoint x="580" y="1320" as="sourcePoint" />
            <mxPoint x="250" y="1051" as="targetPoint" />
          </mxGeometry>
        </mxCell>
        <mxCell id="0j59Tg4bFkBEUP-R-mHI-49" value="" style="endArrow=none;html=1;rounded=0;entryX=0.5;entryY=1;entryDx=0;entryDy=0;" edge="1" parent="1" source="0j59Tg4bFkBEUP-R-mHI-50" target="0j59Tg4bFkBEUP-R-mHI-48">
          <mxGeometry width="50" height="50" relative="1" as="geometry">
            <mxPoint x="230" y="1319" as="sourcePoint" />
            <mxPoint x="230" y="1031" as="targetPoint" />
          </mxGeometry>
        </mxCell>
        <mxCell id="0j59Tg4bFkBEUP-R-mHI-48" value="" style="rounded=0;whiteSpace=wrap;html=1;" vertex="1" parent="1">
          <mxGeometry x="225" y="1060" width="10" height="40" as="geometry" />
        </mxCell>
        <mxCell id="0j59Tg4bFkBEUP-R-mHI-51" value="" style="endArrow=none;html=1;rounded=0;entryX=0.5;entryY=1;entryDx=0;entryDy=0;" edge="1" parent="1" target="0j59Tg4bFkBEUP-R-mHI-50">
          <mxGeometry width="50" height="50" relative="1" as="geometry">
            <mxPoint x="230" y="1336" as="sourcePoint" />
            <mxPoint x="230" y="1167" as="targetPoint" />
          </mxGeometry>
        </mxCell>
        <mxCell id="0j59Tg4bFkBEUP-R-mHI-50" value="" style="rounded=0;whiteSpace=wrap;html=1;" vertex="1" parent="1">
          <mxGeometry x="225" y="1237" width="10" height="30" as="geometry" />
        </mxCell>
        <mxCell id="0j59Tg4bFkBEUP-R-mHI-54" value="" style="endArrow=none;html=1;rounded=0;entryX=0.5;entryY=1;entryDx=0;entryDy=0;" edge="1" parent="1" target="0j59Tg4bFkBEUP-R-mHI-53">
          <mxGeometry width="50" height="50" relative="1" as="geometry">
            <mxPoint x="580" y="1337" as="sourcePoint" />
            <mxPoint x="580" y="1048" as="targetPoint" />
          </mxGeometry>
        </mxCell>
        <mxCell id="0j59Tg4bFkBEUP-R-mHI-53" value="" style="rounded=0;whiteSpace=wrap;html=1;" vertex="1" parent="1">
          <mxGeometry x="575" y="1157" width="10" height="30" as="geometry" />
        </mxCell>
        <mxCell id="0j59Tg4bFkBEUP-R-mHI-59" value="" style="endArrow=none;html=1;rounded=0;entryX=0.5;entryY=1;entryDx=0;entryDy=0;" edge="1" parent="1" source="0j59Tg4bFkBEUP-R-mHI-64" target="0j59Tg4bFkBEUP-R-mHI-52">
          <mxGeometry width="50" height="50" relative="1" as="geometry">
            <mxPoint x="410" y="1320" as="sourcePoint" />
            <mxPoint x="410" y="1031" as="targetPoint" />
          </mxGeometry>
        </mxCell>
        <mxCell id="0j59Tg4bFkBEUP-R-mHI-61" value="" style="endArrow=classic;html=1;rounded=0;exitX=0;exitY=0.5;exitDx=0;exitDy=0;dashed=1;dashPattern=8 8;" edge="1" parent="1" source="0j59Tg4bFkBEUP-R-mHI-52">
          <mxGeometry width="50" height="50" relative="1" as="geometry">
            <mxPoint x="390" y="1170" as="sourcePoint" />
            <mxPoint x="230" y="1100" as="targetPoint" />
          </mxGeometry>
        </mxCell>
        <mxCell id="0j59Tg4bFkBEUP-R-mHI-63" value="offerCreated" style="edgeLabel;html=1;align=center;verticalAlign=middle;resizable=0;points=[];" vertex="1" connectable="0" parent="0j59Tg4bFkBEUP-R-mHI-61">
          <mxGeometry x="-0.0056" y="-1" relative="1" as="geometry">
            <mxPoint as="offset" />
          </mxGeometry>
        </mxCell>
        <mxCell id="0j59Tg4bFkBEUP-R-mHI-65" value="" style="endArrow=none;html=1;rounded=0;entryX=0.5;entryY=1;entryDx=0;entryDy=0;" edge="1" parent="1" target="0j59Tg4bFkBEUP-R-mHI-64">
          <mxGeometry width="50" height="50" relative="1" as="geometry">
            <mxPoint x="410" y="1337" as="sourcePoint" />
            <mxPoint x="410" y="1117" as="targetPoint" />
          </mxGeometry>
        </mxCell>
        <mxCell id="0j59Tg4bFkBEUP-R-mHI-69" value="" style="endArrow=classic;html=1;rounded=0;dashed=1;dashPattern=12 12;" edge="1" parent="1">
          <mxGeometry width="50" height="50" relative="1" as="geometry">
            <mxPoint x="415" y="1187" as="sourcePoint" />
            <mxPoint x="575" y="1187" as="targetPoint" />
          </mxGeometry>
        </mxCell>
        <mxCell id="0j59Tg4bFkBEUP-R-mHI-70" value="availableOffers" style="edgeLabel;html=1;align=center;verticalAlign=middle;resizable=0;points=[];" vertex="1" connectable="0" parent="0j59Tg4bFkBEUP-R-mHI-69">
          <mxGeometry x="0.0056" y="-1" relative="1" as="geometry">
            <mxPoint as="offset" />
          </mxGeometry>
        </mxCell>
        <mxCell id="0j59Tg4bFkBEUP-R-mHI-57" value="" style="endArrow=classic;html=1;rounded=0;" edge="1" parent="1">
          <mxGeometry width="50" height="50" relative="1" as="geometry">
            <mxPoint x="580" y="1157" as="sourcePoint" />
            <mxPoint x="410" y="1157" as="targetPoint" />
          </mxGeometry>
        </mxCell>
        <mxCell id="0j59Tg4bFkBEUP-R-mHI-58" value="getOffers" style="edgeLabel;html=1;align=center;verticalAlign=middle;resizable=0;points=[];" vertex="1" connectable="0" parent="0j59Tg4bFkBEUP-R-mHI-57">
          <mxGeometry x="-0.0549" y="3" relative="1" as="geometry">
            <mxPoint as="offset" />
          </mxGeometry>
        </mxCell>
        <mxCell id="0j59Tg4bFkBEUP-R-mHI-74" value="" style="rounded=0;whiteSpace=wrap;html=1;" vertex="1" parent="1">
          <mxGeometry x="575" y="1207" width="10" height="73" as="geometry" />
        </mxCell>
        <mxCell id="0j59Tg4bFkBEUP-R-mHI-77" value="" style="endArrow=classic;html=1;rounded=0;exitX=0.5;exitY=1;exitDx=0;exitDy=0;" edge="1" parent="1">
          <mxGeometry width="50" height="50" relative="1" as="geometry">
            <mxPoint x="415" y="1237" as="sourcePoint" />
            <mxPoint x="235" y="1237" as="targetPoint" />
          </mxGeometry>
        </mxCell>
        <mxCell id="0j59Tg4bFkBEUP-R-mHI-78" value="requestDeal" style="edgeLabel;html=1;align=center;verticalAlign=middle;resizable=0;points=[];" vertex="1" connectable="0" parent="0j59Tg4bFkBEUP-R-mHI-77">
          <mxGeometry x="-0.0056" y="-1" relative="1" as="geometry">
            <mxPoint as="offset" />
          </mxGeometry>
        </mxCell>
        <mxCell id="0j59Tg4bFkBEUP-R-mHI-73" value="" style="rounded=0;whiteSpace=wrap;html=1;" vertex="1" parent="1">
          <mxGeometry x="405" y="1207" width="10" height="70" as="geometry" />
        </mxCell>
        <mxCell id="0j59Tg4bFkBEUP-R-mHI-79" value="" style="endArrow=classic;html=1;rounded=0;dashed=1;dashPattern=12 12;entryX=0.005;entryY=0.824;entryDx=0;entryDy=0;entryPerimeter=0;" edge="1" parent="1" target="0j59Tg4bFkBEUP-R-mHI-73">
          <mxGeometry width="50" height="50" relative="1" as="geometry">
            <mxPoint x="235" y="1267" as="sourcePoint" />
            <mxPoint x="395" y="1267" as="targetPoint" />
          </mxGeometry>
        </mxCell>
        <mxCell id="0j59Tg4bFkBEUP-R-mHI-80" value="responseDeal" style="edgeLabel;html=1;align=center;verticalAlign=middle;resizable=0;points=[];" vertex="1" connectable="0" parent="0j59Tg4bFkBEUP-R-mHI-79">
          <mxGeometry x="0.0056" y="-1" relative="1" as="geometry">
            <mxPoint as="offset" />
          </mxGeometry>
        </mxCell>
        <mxCell id="0j59Tg4bFkBEUP-R-mHI-75" value="" style="endArrow=classic;html=1;rounded=0;" edge="1" parent="1">
          <mxGeometry width="50" height="50" relative="1" as="geometry">
            <mxPoint x="580" y="1206.2" as="sourcePoint" />
            <mxPoint x="410" y="1206.2" as="targetPoint" />
          </mxGeometry>
        </mxCell>
        <mxCell id="0j59Tg4bFkBEUP-R-mHI-76" value="productBuy" style="edgeLabel;html=1;align=center;verticalAlign=middle;resizable=0;points=[];" vertex="1" connectable="0" parent="0j59Tg4bFkBEUP-R-mHI-75">
          <mxGeometry x="-0.0549" y="3" relative="1" as="geometry">
            <mxPoint as="offset" />
          </mxGeometry>
        </mxCell>
        <mxCell id="0j59Tg4bFkBEUP-R-mHI-81" value="" style="endArrow=classic;html=1;rounded=0;dashed=1;dashPattern=12 12;entryX=0;entryY=1;entryDx=0;entryDy=0;" edge="1" parent="1" target="0j59Tg4bFkBEUP-R-mHI-74">
          <mxGeometry width="50" height="50" relative="1" as="geometry">
            <mxPoint x="415" y="1277" as="sourcePoint" />
            <mxPoint x="570" y="1277" as="targetPoint" />
          </mxGeometry>
        </mxCell>
        <mxCell id="0j59Tg4bFkBEUP-R-mHI-82" value="productSell" style="edgeLabel;html=1;align=center;verticalAlign=middle;resizable=0;points=[];" vertex="1" connectable="0" parent="0j59Tg4bFkBEUP-R-mHI-81">
          <mxGeometry x="0.0056" y="-1" relative="1" as="geometry">
            <mxPoint as="offset" />
          </mxGeometry>
        </mxCell>
        <mxCell id="0j59Tg4bFkBEUP-R-mHI-83" value="" style="endArrow=classic;html=1;rounded=0;entryX=1;entryY=1;entryDx=0;entryDy=0;" edge="1" parent="1" target="0j59Tg4bFkBEUP-R-mHI-52">
          <mxGeometry width="50" height="50" relative="1" as="geometry">
            <mxPoint x="410" y="1110" as="sourcePoint" />
            <mxPoint x="460" y="1130" as="targetPoint" />
            <Array as="points">
              <mxPoint x="440" y="1110" />
              <mxPoint x="440" y="1140" />
            </Array>
          </mxGeometry>
        </mxCell>
        <mxCell id="0j59Tg4bFkBEUP-R-mHI-84" value="saveData" style="edgeLabel;html=1;align=center;verticalAlign=middle;resizable=0;points=[];" vertex="1" connectable="0" parent="0j59Tg4bFkBEUP-R-mHI-83">
          <mxGeometry x="0.0176" relative="1" as="geometry">
            <mxPoint as="offset" />
          </mxGeometry>
        </mxCell>
        <mxCell id="0j59Tg4bFkBEUP-R-mHI-52" value="" style="rounded=0;whiteSpace=wrap;html=1;" vertex="1" parent="1">
          <mxGeometry x="405" y="1060" width="10" height="80" as="geometry" />
        </mxCell>
        <mxCell id="0j59Tg4bFkBEUP-R-mHI-55" value="" style="endArrow=classic;html=1;rounded=0;" edge="1" parent="1">
          <mxGeometry width="50" height="50" relative="1" as="geometry">
            <mxPoint x="230" y="1060" as="sourcePoint" />
            <mxPoint x="410" y="1060" as="targetPoint" />
          </mxGeometry>
        </mxCell>
        <mxCell id="0j59Tg4bFkBEUP-R-mHI-56" value="createOffer" style="edgeLabel;html=1;align=center;verticalAlign=middle;resizable=0;points=[];" vertex="1" connectable="0" parent="0j59Tg4bFkBEUP-R-mHI-55">
          <mxGeometry x="0.0056" y="-1" relative="1" as="geometry">
            <mxPoint as="offset" />
          </mxGeometry>
        </mxCell>
        <mxCell id="0j59Tg4bFkBEUP-R-mHI-86" value="&lt;div&gt;Basic Task and A&lt;br&gt;&lt;/div&gt;&lt;div&gt;Cooperation Sale includes two roles&lt;br&gt;&lt;/div&gt;" style="text;html=1;whiteSpace=wrap;overflow=hidden;rounded=0;" vertex="1" parent="1">
          <mxGeometry x="710" y="391" width="180" height="120" as="geometry" />
        </mxCell>
        <mxCell id="0j59Tg4bFkBEUP-R-mHI-87" value="&lt;div&gt;B&lt;/div&gt;&lt;div&gt;Intermediate broker role ties two other roles&lt;br&gt;&lt;/div&gt;" style="text;html=1;whiteSpace=wrap;overflow=hidden;rounded=0;" vertex="1" parent="1">
          <mxGeometry x="720" y="821" width="180" height="120" as="geometry" />
        </mxCell>
        <mxCell id="0j59Tg4bFkBEUP-R-mHI-88" value="&lt;div&gt;C and D&lt;/div&gt;&lt;div&gt;Salesman creates offers and sends them to Broker. Customer can get those offers and buy a product with Broker.&lt;/div&gt;&lt;div&gt;&lt;br&gt;&lt;/div&gt;&lt;div&gt;[1..*] shows, that there are many brokers, salesmen and customers.&lt;br&gt;&lt;/div&gt;" style="text;html=1;whiteSpace=wrap;overflow=hidden;rounded=0;" vertex="1" parent="1">
          <mxGeometry x="720" y="1160" width="180" height="170" as="geometry" />
        </mxCell>
      </root>
    </mxGraphModel>
  </diagram>
</mxfile>
